<svg xmlns="http://www.w3.org/2000/svg" viewBox="0 0 183 140" fill="none"><g fill="#fff" clip-path="url(#a)"><path d="M106.47 28.93h-6.37v18.2h6.37v-18.2Z"/><path d="M123.04 28.16h-6.37v14.23h6.37V28.16Z"/><path d="M23.83 49A23.23 23.23 0 0 0 3.41 61.13h10.8C19 57 25.94 55.8 31 61.13h11.39C37.93 55.09 31.24 49 23.83 49Z"/><path d="M39.25 72.11c-14.89 31.15-41 4.6-25-11H3.41c-8.47 14.76 3.24 34.68 20.42 34.23 13.28 0 24.24-19.72 24.24-23.21 0-1.54-2.14-6.25-5.68-11H31a40.52 40.52 0 0 1 8.25 10.98Z"/><path d="M182.62 28.71V111A28.62 28.62 0 0 1 154 139.54h-12.11v-28H83.94v28H71.81A28.62 28.62 0 0 1 43.22 111V85.08h91.87V35.62H90.74v27.79H43.22v-34.7a27.42 27.42 0 0 1 .9-7.13 21.35 21.35 0 0 1 .43-1.51l.2-.59.21-.59.25-.65.26-.64c.71-1.68 1.59-3.3 2.6-4.82v-.05c.26-.37.53-.75.81-1.12l.7-.91c.23-.3.57-.67.86-1a19.3 19.3 0 0 1 1.35-1.42 29.22 29.22 0 0 1 3.4-2.84c.32-.24.66-.46 1-.68a27.41 27.41 0 0 1 3.46-1.93l.75-.34A27.84 27.84 0 0 1 65.73.78C67.01.5 68.3.31 69.6.21h86.54c1.3.1 2.6.3 3.88.57.22 0 .43.09.65.15a28.4 28.4 0 0 1 4.67 1.56l.75.34a25.14 25.14 0 0 1 3.46 1.93c.38.25.69.44 1 .68a29.23 29.23 0 0 1 5.63 5.29l.71.91c.28.37.54.75.8 1.12v.05a28.62 28.62 0 0 1 2.6 4.82l.27.64.24.65.22.59.19.59c0 .09.06.19.1.3l.34 1.21c.32 1.26.56 2.55.7 3.84.16 1.08.25 2.17.27 3.26Z"/><path d="M177.76 12.78H48.07A28.59 28.59 0 0 1 71.8.12H154a28.59 28.59 0 0 1 23.76 12.66Z"/><path d="M182.43 25.43H43.4a28.3 28.3 0 0 1 4.67-12.65h129.69a28.17 28.17 0 0 1 4.67 12.65Z"/><path d="M182.63 28.71v9.37h-47.54v-2.46H90.74v2.46H43.21v-9.37c0-1.1.06-2.2.19-3.29h139c.14 1.1.22 2.19.23 3.29Z"/><path d="M90.75 38.08H43.21v12.66h47.54V38.08Z"/><path d="M182.63 38.08h-47.54v12.66h47.54V38.08Z"/><path d="M90.75 50.74H43.21v12.65h47.54V50.74Z"/><path d="M182.63 50.74h-47.54v12.65h47.54V50.74Z"/></g><defs><clipPath id="a"><path fill="#fff" d="M0 0h183v140H0z"/></clipPath></defs></svg>
