<svg width="200" height="200" viewBox="0 0 200 200" fill="none" xmlns="http://www.w3.org/2000/svg">
<rect width="200" height="200" fill="#8EB886"/>
<path d="M100.333 41C84.5987 41 69.5053 47.25 58.38 58.38C47.2497 69.5051 41 84.5987 41 100.333C41 116.068 47.25 131.161 58.38 142.287C69.5051 153.417 84.5987 159.667 100.333 159.667C116.068 159.667 131.161 153.417 142.287 142.287C153.417 131.162 159.667 116.068 159.667 100.333C159.667 84.5987 153.417 69.5053 142.287 58.38C131.162 47.2497 116.068 41 100.333 41ZM156.953 106.484H96.4373L111.093 121.14C113.505 123.551 113.505 127.463 111.093 129.869C108.682 132.281 104.776 132.281 102.364 129.869L78.3481 105.859C77.1138 104.619 76.4679 102.905 76.5721 101.15C76.468 99.7388 76.9784 98.3429 77.9784 97.3377L103.218 72.0977C104.14 71.1759 105.39 70.6603 106.692 70.6603C108 70.6603 109.245 71.1759 110.166 72.0977L111.463 73.3946C113.38 75.3113 113.38 78.4206 111.463 80.3373L95.9473 95.8533H156.953C157.39 95.8533 157.802 96.0252 158.109 96.3325C158.416 96.6397 158.588 97.0564 158.588 97.4887V104.848C158.588 105.28 158.416 105.697 158.109 106.004C157.807 106.312 157.391 106.484 156.953 106.484Z" fill="#274F11"/>
</svg>
